<svg width="207" height="38" viewBox="0 0 207 38" fill="none" xmlns="http://www.w3.org/2000/svg">
<g clip-path="url(#clip0_414_32)">
<path d="M0 22.2594C0 14.6068 5.57543 8.42969 13.3913 8.42969C21.316 8.42969 26.3986 14.498 26.3986 22.8037V24.1703H6.01082C6.44924 28.1614 9.45465 31.4389 14.4284 31.4389C16.9984 31.4389 20.0582 30.4018 21.9177 28.5424L24.5422 32.3127C21.9177 34.8283 18.0385 36.1375 13.8297 36.1375C5.90197 36.1436 0 30.6226 0 22.2594ZM13.3913 13.1313C8.47199 13.1313 6.23154 16.9017 5.9564 20.1278H20.8232C20.7144 17.0136 18.5827 13.1313 13.3913 13.1313Z" fill="#111111"/>
<path d="M80.0789 36.455V0H85.8176V36.455H80.0789Z" fill="#111111"/>
<path d="M104.82 36.455V32.9568C102.907 35.0884 99.629 37.1111 95.4747 37.1111C89.7904 37.1111 87.0027 34.1602 87.0027 28.748V10.0564H92.7414V26.6738C92.7414 30.7738 94.8186 32.0316 98.0417 32.0316C100.938 32.0316 103.454 30.3928 104.82 28.5877V10.0564H110.559V36.455H104.82Z" fill="#111111"/>
<path d="M122.593 31.1002C122.154 31.593 121.117 32.0284 120.023 32.0284C118.384 32.0284 117.507 30.7162 117.507 28.9141V15.0844H122.865V10.0562H117.507V2.84204C115.615 3.23813 113.725 3.63421 111.832 4.0303C111.811 6.03794 111.79 8.0486 111.769 10.0562V15.0844V30.3352C111.769 34.7073 114.118 37.114 118.547 37.114C121.226 37.114 122.919 36.4035 123.96 35.4208L122.593 31.1002Z" fill="#111111"/>
<path d="M130.27 10.0564H124.531V36.455H130.27V10.0564Z" fill="#111111"/>
<path d="M131.588 23.2299C131.588 15.6861 136.779 9.40015 145.142 9.40015C153.614 9.40015 158.751 15.6861 158.751 23.2299C158.751 30.8281 153.614 37.114 145.142 37.114C136.782 37.111 131.588 30.8281 131.588 23.2299ZM152.795 23.2299C152.795 18.5827 150.062 14.4858 145.142 14.4858C140.278 14.4858 137.544 18.5857 137.544 23.2299C137.544 27.9315 140.278 32.0284 145.142 32.0284C150.065 32.0284 152.795 27.9285 152.795 23.2299Z" fill="#111111"/>
<path d="M177.794 36.4549V19.9493C177.794 15.8494 175.717 14.4827 172.494 14.4827C169.543 14.4827 167.027 16.2304 165.715 18.0354V36.4549H159.976V10.0563H165.715V13.6634C167.462 11.5862 170.852 9.40015 175.006 9.40015C180.69 9.40015 183.533 12.46 183.533 17.8721V36.4549H177.794Z" fill="#111111"/>
<path d="M183.898 33.0142L186.523 28.8599C188.382 30.7738 192.044 32.5758 195.488 32.5758C198.932 32.5758 200.679 31.1003 200.679 29.0231C200.679 23.8317 184.718 27.5477 184.718 17.4369C184.718 13.1193 188.434 9.40332 195.104 9.40332C199.585 9.40332 202.974 10.9877 205.381 13.1193L202.977 17.1648C201.393 15.3597 198.442 13.9961 195.161 13.9961C192.156 13.9961 190.242 15.3627 190.242 17.2222C190.242 21.9238 206.2 18.4256 206.2 28.9203C206.2 33.5675 202.321 37.1202 195.213 37.1202C190.732 37.1112 186.632 35.6901 183.898 33.0142Z" fill="#111111"/>
<path d="M64.9277 11.7132C65.0365 11.7556 65.1454 11.7919 65.2542 11.8372C70.2461 13.9174 72.8524 19.2993 71.6037 24.394L71.6067 24.397C71.6067 24.397 68.8704 38.5261 54.8955 32.6453C55.3611 32.9295 55.8389 33.1926 56.3256 33.4314C57.3113 33.9182 58.3272 34.3294 59.3734 34.5955C60.4195 34.8616 61.4838 35.0006 62.5451 35.0006C63.6033 34.9946 64.6586 34.8555 65.6714 34.5653C67.7033 34.0029 69.5688 32.8811 71.1017 31.4056C72.6468 29.9392 73.8683 28.116 74.6574 26.1295C75.0566 25.1378 75.3438 24.1007 75.504 23.0455C75.6552 21.9903 75.6885 20.9169 75.5736 19.8557C75.5554 19.5896 75.495 19.3296 75.4557 19.0635C75.4073 18.8005 75.3377 18.5435 75.2803 18.2834C75.1321 17.7694 74.9628 17.2615 74.7512 16.7686C74.3309 15.7799 73.7443 14.8517 73.0368 14.0142C72.1932 12.9952 71.1864 12.0972 70.0375 11.3746C69.1002 10.785 67.5309 10.2045 66.3094 10.0231C62.2065 9.41232 58.2577 10.3557 55.2493 12.7201C58.043 10.9271 61.6138 10.4555 64.9277 11.7132Z" fill="#3A0CA3"/>
<path d="M78.2284 20.0643C77.5421 17.8812 76.3024 15.8555 74.576 14.1804C75.099 14.7912 75.5677 15.4564 75.9577 16.1699C76.5473 17.2342 76.9374 18.4104 77.1581 19.6107C77.6116 22.0205 77.3123 24.5361 76.4808 26.8189C76.0696 27.9648 75.5133 29.0563 74.8572 30.0813C74.189 31.1002 73.4059 32.0436 72.526 32.8932C71.6401 33.7368 70.6574 34.4805 69.5901 35.0943C68.5168 35.696 67.3648 36.1647 66.1645 36.458C63.7668 37.0536 61.2028 36.9266 58.914 36.1375C57.2692 35.5902 55.7634 34.7557 54.4028 33.7519C55.706 34.9855 57.2782 36.0226 59.0984 36.7815C66.751 39.9713 74.7876 36.6636 77.7477 29.5643L77.787 29.4735C79.078 26.3684 79.1718 23.0666 78.2284 20.0643Z" fill="#3A0CA3"/>
<path d="M38.0061 36.727C33.241 36.727 29.4465 35.3513 26.6255 32.6029L29.265 28.4213C30.2538 29.4493 31.5932 30.3292 33.2803 31.0609C34.9675 31.7956 36.6334 32.1614 38.2843 32.1614C39.9714 32.1614 41.2625 31.8319 42.1605 31.1727C43.0585 30.5136 43.509 29.6519 43.509 28.5876C43.509 27.6352 42.9587 26.8914 41.8581 26.3592C40.7576 25.8271 39.4212 25.4068 37.8429 25.0954C36.2676 24.784 34.6893 24.4 33.114 23.9404C31.5388 23.4838 30.1993 22.6675 29.0988 21.4943C27.9982 20.3212 27.4479 18.8004 27.4479 16.9318C27.4479 14.6581 28.3822 12.7442 30.2538 11.1871C32.1223 9.62993 34.6712 8.84985 37.8973 8.84985C41.967 8.84985 45.4108 10.0956 48.2348 12.59L45.816 16.6597C44.9724 15.7073 43.8537 14.9363 42.4629 14.3497C41.069 13.7631 39.5663 13.4698 37.9547 13.4698C36.452 13.4698 35.2517 13.7722 34.3537 14.3769C33.4557 14.9816 33.0052 15.7617 33.0052 16.7141C33.0052 17.4488 33.3982 18.0445 34.1874 18.501C34.9765 18.9606 35.9652 19.2992 37.1565 19.5169C38.3478 19.7377 39.6389 20.04 41.0327 20.424C42.4266 20.808 43.7176 21.2585 44.9089 21.7725C46.1002 22.2865 47.0889 23.121 47.878 24.273C48.6672 25.428 49.0602 26.8309 49.0602 28.4788C49.0602 30.8976 48.0897 32.878 46.1455 34.417C44.2014 35.956 41.4893 36.727 38.0061 36.727Z" fill="black"/>
<path d="M70.6453 27.2695C70.0829 28.2552 69.3845 29.126 68.5802 29.8637C67.6338 30.5894 66.5302 31.0762 65.3511 31.2485C64.1749 31.4209 62.9262 31.2848 61.6835 30.7678C57.6712 29.0957 56.5616 25.0079 58.0794 21.3645L58.1187 21.2738C59.6365 17.6304 63.5914 15.5442 67.4645 17.1588C68.426 17.5609 69.2182 18.0991 69.8501 18.7401C68.8856 16.2698 66.9596 14.1775 64.32 13.077C59.6305 11.1238 54.3121 12.9621 51.7662 17.186C51.5788 17.5458 51.4004 17.9177 51.2401 18.2986L51.2008 18.3924C50.9075 19.0999 50.6747 19.8165 50.5054 20.5391C50.4752 20.6721 50.4449 20.8021 50.4177 20.9352C49.9793 23.0547 50.0972 25.1893 50.5992 27.2272C50.8229 28.1373 51.5848 30.2749 53.4836 31.693C53.9402 32.0316 54.4118 32.3491 54.8926 32.6424C54.9017 32.6454 54.9077 32.6484 54.9168 32.6514C64.698 36.7574 68.9672 31.052 70.6453 27.2695Z" fill="#1F44DD"/>
</g>
<defs>
<clipPath id="clip0_414_32">
<rect width="206.2" height="38" fill="white"/>
</clipPath>
</defs>
</svg>
