<svg width="80" height="80" viewBox="0 0 80 80" fill="none" xmlns="http://www.w3.org/2000/svg">
<g clip-path="url(#clip0_364_611)">
<path d="M-0.000315814 14.2896C0.123833 13.8175 0.241317 13.3435 0.373173 12.8734C1.67362 8.23792 5.85615 5.05831 10.6736 5.04808C13.5347 5.04202 16.3959 5.04703 19.3747 5.04703C19.3747 3.78709 19.3549 2.57061 19.3815 1.35517C19.3997 0.532485 19.9912 -0.00587595 20.7868 0.00101808C21.5362 0.00749429 22.1118 0.541468 22.1745 1.30859C22.1978 1.59396 22.1818 1.88267 22.182 2.16992C22.1824 3.10312 22.1822 4.03612 22.1822 5.00713C31.5432 5.00713 40.8287 5.00713 50.2405 5.00713C50.2405 4.15791 50.2397 3.30827 50.241 2.45843C50.2414 2.11895 50.228 1.77822 50.253 1.44041C50.3203 0.531023 50.8586 -0.00608486 51.673 -0.000444292C52.4717 0.00498737 53.0597 0.575312 53.0897 1.45796C53.1243 2.47514 53.0985 3.49441 53.1022 4.51285C53.1028 4.66368 53.1214 4.8143 53.1374 5.04661C53.894 5.04661 54.6158 5.04661 55.3373 5.04661C57.4464 5.04661 59.5553 5.04431 61.6644 5.04703C67.621 5.05476 72.3245 9.65057 72.4493 15.6455C72.5085 18.4904 72.4703 21.3378 72.4583 24.184C72.4533 25.3752 71.9102 25.8766 70.7252 25.8764C48.3335 25.8745 25.9419 25.8741 3.55023 25.8735C3.34338 25.8735 3.13633 25.8735 2.80908 25.8735C2.80908 26.1804 2.80908 26.4549 2.80908 26.7292C2.80908 37.566 2.80616 48.4025 2.81033 59.2393C2.81221 64.2043 6.19027 67.5707 11.1596 67.5732C15.013 67.5751 18.8664 67.5684 22.7198 67.5767C23.9894 67.5794 24.7612 68.6856 24.1134 69.6491C23.8674 70.0149 23.2852 70.3569 22.8527 70.3615C18.5052 70.4083 14.155 70.4639 9.80935 70.3548C5.2202 70.2397 1.00683 66.3452 0.162995 61.6474C0.132166 61.4753 0.0548848 61.3115 -0.000732422 61.1438C-0.000315814 45.5261 -0.000315814 29.908 -0.000315814 14.2896ZM53.0985 8.00206C53.0985 8.56925 53.1372 9.17029 53.0876 9.76401C53.0372 10.3688 53.2362 10.6427 53.8267 10.8963C56.6571 12.1119 57.7893 15.5611 56.3107 18.2681C54.8103 21.0155 51.2864 21.89 48.711 20.123C46.941 18.9088 46.1715 17.1816 46.4217 15.0588C46.6573 13.06 47.7701 11.6684 49.5896 10.823C49.8346 10.7091 50.1787 10.4733 50.198 10.2673C50.2705 9.49828 50.227 8.71841 50.227 7.9114C40.8425 7.9114 31.5396 7.9114 22.1811 7.9114C22.1811 8.5563 22.2203 9.15566 22.1701 9.74751C22.1191 10.3498 22.3074 10.6381 22.9025 10.8833C24.9549 11.7292 26.2237 13.8866 26.0691 16.08C25.9137 18.2836 24.3469 20.2317 22.2455 20.8337C20.1037 21.4475 17.8061 20.6587 16.4936 18.8589C14.4566 16.0656 15.541 12.1959 18.7348 10.8056C18.9781 10.6997 19.3149 10.4553 19.334 10.2497C19.4055 9.48177 19.3626 8.70316 19.3626 7.86209C16.5701 7.86209 13.8684 7.85979 11.1667 7.86439C10.7509 7.86502 10.3303 7.86355 9.91975 7.91975C5.94177 8.46375 3.14508 11.236 2.87324 15.1787C2.69785 17.7239 2.84012 20.291 2.84449 22.8485C2.84449 22.8873 2.90219 22.9262 2.92948 22.9606C25.1266 22.9606 47.3187 22.9606 69.5178 22.9606C69.5432 22.8023 69.5739 22.7006 69.5737 22.599C69.5682 20.1188 69.6122 17.637 69.5391 15.1589C69.436 11.6634 66.4897 8.29558 63.0165 8.05116C59.7607 7.82198 56.4761 8.00206 53.0985 8.00206ZM20.7813 18.1919C22.0991 18.1835 23.1987 17.0775 23.2156 15.7432C23.2329 14.3724 22.1247 13.2599 20.747 13.2651C19.4332 13.2701 18.3061 14.3903 18.2979 15.6989C18.2894 17.0383 19.4474 18.2004 20.7813 18.1919ZM54.0892 15.7209C54.0915 14.3239 53.011 13.2499 51.6193 13.2656C50.2859 13.2806 49.2061 14.379 49.2092 15.7173C49.2123 17.0828 50.3507 18.2165 51.6935 18.1917C53.0233 18.1672 54.0869 17.0702 54.0892 15.7209Z" fill="#1F44DD"/>
<path d="M80.0001 39.9891C79.666 41.427 79.4181 42.8915 78.9826 44.2978C77.3732 49.4953 74.6292 54.0943 71.3255 58.3615C65.5119 65.8705 58.6146 72.1378 50.1639 76.5677C47.0866 78.1809 43.8687 79.4367 40.3932 79.8514C37.2899 80.2218 34.2493 80.025 31.7994 77.7884C29.657 75.8326 28.5432 73.2289 27.872 70.4567C27.6441 69.5156 28.0864 68.6271 28.884 68.0593C32.2989 65.628 35.7251 63.2119 39.1727 60.8278C40.3047 60.0451 41.5384 60.2113 42.5962 61.1899C43.6675 62.181 44.7122 63.2013 45.7701 64.2068C46.4857 64.8868 46.7458 64.9235 47.5324 64.3724C54.124 59.7536 59.769 54.1784 64.3798 47.5629C64.9254 46.7801 64.8797 46.4256 64.1844 45.7243C63.23 44.7616 62.2595 43.8146 61.3138 42.8434C60.1562 41.6545 60.0554 40.3956 61.0255 39.0417C63.3783 35.7576 65.7436 32.4827 68.1093 29.2081C68.8754 28.1474 69.884 27.7428 71.1766 28.0808C73.0807 28.5788 74.8635 29.3478 76.4679 30.4912C78.371 31.8474 79.4012 33.7564 79.8272 36.0256C79.8699 36.2527 79.9416 36.4742 79.9997 36.6983C80.0001 37.7953 80.0001 38.8923 80.0001 39.9891ZM40.6352 63.2556C37.3974 65.534 34.2024 67.7737 31.0285 70.0433C30.8814 70.1486 30.8112 70.5695 30.8951 70.7586C31.4432 71.9926 31.9946 73.23 32.6401 74.4143C33.3954 75.8 34.6392 76.6436 36.1654 76.8893C37.3588 77.0815 38.607 77.1588 39.8066 77.0403C43.1124 76.7142 46.1651 75.5048 49.0601 73.939C58.7633 68.6916 66.4229 61.2348 72.3014 51.9345C74.7646 48.0377 76.7245 43.8873 77.1109 39.1881C77.3413 36.3852 76.8089 33.8392 74.0832 32.3448C73.1321 31.8234 72.0925 31.4655 71.1018 31.0143C70.6441 30.8058 70.3683 30.9067 70.0671 31.3308C67.9076 34.37 65.719 37.3883 63.5418 40.4148C63.4543 40.5366 63.3881 40.6737 63.2864 40.8469C64.2694 41.8187 65.2384 42.7657 66.1954 43.7252C67.901 45.4354 68.0732 47.2242 66.6976 49.2007C61.8785 56.1244 55.9681 61.9514 49.0657 66.772C47.2949 68.0087 45.4487 67.8395 43.8873 66.3518C42.8308 65.3451 41.7738 64.3394 40.6352 63.2556Z" fill="#1F44DD"/>
<path d="M44.7379 37.5988C43.6475 37.5992 42.5568 37.615 41.4667 37.5946C40.4171 37.5747 39.8122 37.0144 39.8259 36.1249C39.8392 35.2686 40.43 34.7273 41.4449 34.7193C43.6516 34.702 45.8586 34.701 48.0654 34.7202C49.064 34.729 49.6737 35.2982 49.6791 36.1429C49.6845 36.9883 49.0767 37.568 48.0873 37.5923C46.9714 37.6194 45.8544 37.5983 44.7379 37.5988Z" fill="#1F44DD"/>
<path d="M17.0038 56.4831C18.0943 56.4831 19.1847 56.4695 20.2748 56.4871C21.2819 56.5031 21.8817 57.0403 21.8948 57.8947C21.9083 58.7644 21.3392 59.3445 20.3325 59.3575C18.1003 59.3861 15.8671 59.3851 13.6347 59.3589C12.6375 59.3472 12.0345 58.7562 12.0403 57.9131C12.0462 57.0739 12.6684 56.5052 13.6549 56.4879C14.7708 56.4678 15.8875 56.4831 17.0038 56.4831Z" fill="#1F44DD"/>
<path d="M30.8845 37.5981C29.7942 37.5986 28.7038 37.6134 27.6137 37.5944C26.5778 37.5762 25.9385 37 25.9469 36.1368C25.955 35.2949 26.5672 34.7279 27.5664 34.7194C29.7728 34.7006 31.9796 34.7016 34.1859 34.7187C35.1733 34.7262 35.748 35.2301 35.7959 36.0512C35.8486 36.9549 35.2599 37.5632 34.233 37.5906C33.1177 37.6209 32.0008 37.5977 30.8845 37.5981Z" fill="#1F44DD"/>
<path d="M44.6939 48.4553C43.5516 48.4561 42.4088 48.4676 41.2667 48.4526C40.3556 48.4407 39.74 47.8419 39.7579 47.0239C39.7752 46.2388 40.3818 45.6467 41.2442 45.6413C43.5549 45.6269 45.8658 45.6262 48.1768 45.6423C49.0316 45.6484 49.6449 46.2597 49.6532 47.0395C49.6616 47.8167 49.0485 48.4346 48.1993 48.4492C47.0311 48.4695 45.8623 48.4543 44.6939 48.4553Z" fill="#1F44DD"/>
<path d="M30.8698 56.5356C31.9608 56.5354 33.0519 56.5223 34.1428 56.5392C35.175 56.5553 35.7603 57.0658 35.7764 57.9213C35.7932 58.809 35.176 59.386 34.1343 59.3931C31.9263 59.4079 29.718 59.4096 27.5102 59.3921C26.5227 59.3841 25.9194 58.8079 25.9207 57.9508C25.9221 57.0713 26.4831 56.5582 27.5188 56.5402C28.6353 56.5208 29.7526 56.5358 30.8698 56.5356Z" fill="#1F44DD"/>
<path d="M16.9857 37.5457C15.8952 37.5457 14.8044 37.5618 13.7141 37.5409C12.7232 37.5219 12.0818 36.9583 12.0662 36.1441C12.0502 35.3022 12.7324 34.692 13.742 34.687C15.9232 34.6763 18.1043 34.677 20.2855 34.6868C21.2999 34.6914 21.9781 35.2895 21.9702 36.1337C21.9625 36.9539 21.3276 37.5213 20.3352 37.5405C19.2191 37.5624 18.1024 37.5457 16.9857 37.5457Z" fill="#1F44DD"/>
<path d="M16.9902 45.6187C18.1323 45.6176 19.2744 45.6015 20.4161 45.6226C21.3589 45.64 21.9113 46.1986 21.8939 47.0589C21.8774 47.8667 21.3041 48.4323 20.4251 48.4379C18.1152 48.4523 15.8049 48.4538 13.495 48.4364C12.6408 48.43 12.0448 47.8206 12.0413 47.0301C12.0377 46.2343 12.6174 45.6437 13.4865 45.6258C14.6538 45.6017 15.822 45.6197 16.9902 45.6187Z" fill="#1F44DD"/>
<path d="M30.8178 48.4556C29.6721 48.4552 28.5262 48.4677 27.381 48.4512C26.4873 48.4383 25.9299 47.8922 25.9222 47.0689C25.9145 46.2537 26.4842 45.6495 27.3478 45.6428C29.665 45.6249 31.9826 45.6265 34.2998 45.642C35.1678 45.6479 35.7625 46.2391 35.7723 47.0338C35.7827 47.864 35.1813 48.441 34.2548 48.4527C33.1093 48.4669 31.9634 48.456 30.8178 48.4556Z" fill="#1F44DD"/>
</g>
<defs>
<clipPath id="clip0_364_611">
<rect width="80" height="80" fill="white"/>
</clipPath>
</defs>
</svg>
