<svg width="30" height="26" viewBox="0 0 30 26" fill="none" xmlns="http://www.w3.org/2000/svg">
<mask id="path-1-outside-1_304_1784" maskUnits="userSpaceOnUse" x="-1" y="-1" width="32" height="28" fill="black">
<rect fill="white" x="-1" y="-1" width="32" height="28"/>
<path d="M11.66 0.219996L7.16 18.49L6.08 13.27C7.82 13.27 9.26 13.81 10.4 14.89C11.54 15.97 12.11 17.41 12.11 19.21C12.11 21.01 11.54 22.48 10.4 23.62C9.26 24.76 7.85 25.33 6.17 25.33C4.43 25.33 2.99 24.76 1.85 23.62C0.71 22.42 0.14 20.95 0.14 19.21C0.14 18.61 0.17 18.04 0.23 17.5C0.35 16.96 0.53 16.33 0.77 15.61C1.01 14.83 1.34 13.9 1.76 12.82L5.99 0.219996H11.66ZM28.67 0.219996L24.17 18.49L23.09 13.27C24.83 13.27 26.27 13.81 27.41 14.89C28.55 15.97 29.12 17.41 29.12 19.21C29.12 21.01 28.55 22.48 27.41 23.62C26.27 24.76 24.86 25.33 23.18 25.33C21.44 25.33 20 24.76 18.86 23.62C17.72 22.42 17.15 20.95 17.15 19.21C17.15 18.61 17.18 18.04 17.24 17.5C17.36 16.96 17.54 16.33 17.78 15.61C18.02 14.83 18.35 13.9 18.77 12.82L23 0.219996H28.67Z"/>
</mask>
<path d="M11.66 0.219996L12.631 0.459154L12.9362 -0.780004H11.66V0.219996ZM7.16 18.49L6.18074 18.6926L8.13098 18.7292L7.16 18.49ZM6.08 13.27V12.27H4.85192L5.10074 13.4726L6.08 13.27ZM10.4 14.89L11.0877 14.164L11.0877 14.164L10.4 14.89ZM10.4 23.62L11.1071 24.3271L11.1071 24.3271L10.4 23.62ZM1.85 23.62L1.125 24.3087L1.13383 24.318L1.14289 24.3271L1.85 23.62ZM0.23 17.5L-0.746187 17.2831L-0.757914 17.3358L-0.763884 17.3896L0.23 17.5ZM0.77 15.61L1.71868 15.9262L1.72236 15.9152L1.72578 15.9041L0.77 15.61ZM1.76 12.82L2.69201 13.1824L2.70052 13.1605L2.708 13.1383L1.76 12.82ZM5.99 0.219996V-0.780004H5.27087L5.042 -0.0982624L5.99 0.219996ZM28.67 0.219996L29.641 0.459154L29.9462 -0.780004H28.67V0.219996ZM24.17 18.49L23.1907 18.6926L25.141 18.7292L24.17 18.49ZM23.09 13.27V12.27H21.8619L22.1107 13.4726L23.09 13.27ZM27.41 14.89L28.0977 14.164L28.0977 14.164L27.41 14.89ZM18.86 23.62L18.135 24.3087L18.1438 24.318L18.1529 24.3271L18.86 23.62ZM17.24 17.5L16.2638 17.2831L16.2521 17.3358L16.2461 17.3896L17.24 17.5ZM17.78 15.61L18.7287 15.9262L18.7324 15.9152L18.7358 15.9041L17.78 15.61ZM18.77 12.82L19.702 13.1824L19.7105 13.1605L19.718 13.1383L18.77 12.82ZM23 0.219996V-0.780004H22.2809L22.052 -0.0982624L23 0.219996ZM10.689 -0.0191617L6.18902 18.2508L8.13098 18.7292L12.631 0.459154L10.689 -0.0191617ZM8.13926 18.2874L7.05926 13.0674L5.10074 13.4726L6.18074 18.6926L8.13926 18.2874ZM6.08 14.27C7.59419 14.27 8.77873 14.7316 9.71226 15.6159L11.0877 14.164C9.74127 12.8884 8.04581 12.27 6.08 12.27V14.27ZM9.71226 15.6159C10.6231 16.4789 11.11 17.6406 11.11 19.21H13.11C13.11 17.1794 12.4569 15.4611 11.0877 14.164L9.71226 15.6159ZM11.11 19.21C11.11 20.7786 10.6227 21.983 9.69289 22.9129L11.1071 24.3271C12.4573 22.9769 13.11 21.2414 13.11 19.21H11.11ZM9.69289 22.9129C8.74905 23.8567 7.59722 24.33 6.17 24.33V26.33C8.10278 26.33 9.77096 25.6633 11.1071 24.3271L9.69289 22.9129ZM6.17 24.33C4.672 24.33 3.49377 23.8495 2.55711 22.9129L1.14289 24.3271C2.48624 25.6704 4.18801 26.33 6.17 26.33V24.33ZM2.575 22.9312C1.6213 21.9274 1.14 20.7082 1.14 19.21H-0.86C-0.86 21.1918 -0.201297 22.9126 1.125 24.3087L2.575 22.9312ZM1.14 19.21C1.14 18.6431 1.16835 18.1102 1.22388 17.6104L-0.763884 17.3896C-0.828353 17.9698 -0.86 18.5769 -0.86 19.21H1.14ZM1.20619 17.7169C1.31657 17.2202 1.48587 16.6247 1.71868 15.9262L-0.178683 15.2938C-0.425868 16.0353 -0.616572 16.6998 -0.746187 17.2831L1.20619 17.7169ZM1.72578 15.9041C1.95643 15.1545 2.27745 14.2484 2.69201 13.1824L0.827996 12.4575C0.402551 13.5515 0.0635702 14.5055 -0.185779 15.3159L1.72578 15.9041ZM2.708 13.1383L6.938 0.538255L5.042 -0.0982624L0.811996 12.5017L2.708 13.1383ZM5.99 1.22H11.66V-0.780004H5.99V1.22ZM27.699 -0.0191616L23.199 18.2508L25.141 18.7292L29.641 0.459154L27.699 -0.0191616ZM25.1493 18.2874L24.0693 13.0674L22.1107 13.4726L23.1907 18.6926L25.1493 18.2874ZM23.09 14.27C24.6042 14.27 25.7887 14.7316 26.7223 15.6159L28.0977 14.164C26.7513 12.8884 25.0558 12.27 23.09 12.27V14.27ZM26.7223 15.6159C27.6331 16.4789 28.12 17.6406 28.12 19.21H30.12C30.12 17.1794 29.4669 15.4611 28.0977 14.164L26.7223 15.6159ZM28.12 19.21C28.12 20.7786 27.6327 21.983 26.7029 22.9129L28.1171 24.3271C29.4673 22.9769 30.12 21.2414 30.12 19.21H28.12ZM26.7029 22.9129C25.759 23.8567 24.6072 24.33 23.18 24.33V26.33C25.1128 26.33 26.781 25.6633 28.1171 24.3271L26.7029 22.9129ZM23.18 24.33C21.682 24.33 20.5038 23.8495 19.5671 22.9129L18.1529 24.3271C19.4962 25.6704 21.198 26.33 23.18 26.33V24.33ZM19.585 22.9312C18.6313 21.9274 18.15 20.7082 18.15 19.21H16.15C16.15 21.1918 16.8087 22.9126 18.135 24.3087L19.585 22.9312ZM18.15 19.21C18.15 18.6431 18.1784 18.1102 18.2339 17.6104L16.2461 17.3896C16.1816 17.9698 16.15 18.5769 16.15 19.21H18.15ZM18.2162 17.7169C18.3266 17.2202 18.4959 16.6247 18.7287 15.9262L16.8313 15.2938C16.5841 16.0353 16.3934 16.6998 16.2638 17.2831L18.2162 17.7169ZM18.7358 15.9041C18.9664 15.1545 19.2875 14.2484 19.702 13.1824L17.838 12.4575C17.4126 13.5515 17.0736 14.5055 16.8242 15.3159L18.7358 15.9041ZM19.718 13.1383L23.948 0.538255L22.052 -0.0982624L17.822 12.5017L19.718 13.1383ZM23 1.22H28.67V-0.780004H23V1.22Z" fill="#1F44DD" mask="url(#path-1-outside-1_304_1784)"/>
</svg>
