<svg width="80" height="80" viewBox="0 0 80 80" fill="none" xmlns="http://www.w3.org/2000/svg">
<g clip-path="url(#clip0_364_625)">
<path d="M30.6279 72.0049C30.6279 69.2804 30.6279 66.6801 30.6279 63.9983C30.2623 63.9983 29.9367 63.9983 29.6111 63.9983C22.0559 63.9983 14.5007 64.0003 6.94567 63.9974C2.82556 63.9958 0.00169615 61.1637 0.00125162 57.0321C-0.000304227 40.3385 -0.000526491 23.6449 0.00125162 6.95151C0.00169615 2.82784 2.83112 0.0013074 6.95857 0.00108514C28.9852 -0.000470713 51.0118 -0.000248449 73.0384 0.00108514C77.1689 0.0013074 79.9979 2.82451 79.9986 6.94929C80.0008 23.6429 80.0006 40.3365 79.9986 57.0299C79.9981 61.1609 77.1723 63.9958 73.0559 63.9974C65.5007 64.0003 57.9458 63.9983 50.3905 63.9983C50.064 63.9983 49.7373 63.9983 49.3728 63.9983C49.3728 66.679 49.3728 69.2793 49.3728 72.0049C49.6606 72.0049 49.9527 72.0049 50.2445 72.0049C52.5776 72.0049 54.911 71.9989 57.2441 72.0067C59.6216 72.0147 61.3171 73.7215 61.3308 76.1083C61.3353 76.886 61.3375 77.664 61.3302 78.4415C61.3197 79.5357 60.8579 79.9962 59.7483 79.9973C55.4708 80.0018 51.1931 79.9993 46.9157 79.9993C38.1107 79.9993 29.3057 79.9995 20.5007 79.9991C19.0533 79.9991 18.6706 79.6203 18.6688 78.1916C18.6679 77.4417 18.6608 76.6916 18.6708 75.9419C18.6994 73.7692 20.422 72.0265 22.588 72.0098C24.9489 71.9916 27.31 72.0051 29.6709 72.0049C29.9711 72.0049 30.2716 72.0049 30.6279 72.0049ZM77.3388 53.3005C77.3388 53.0162 77.3388 52.7991 77.3388 52.5819C77.3388 37.3879 77.3414 22.1942 77.3361 7.00019C77.3352 4.30123 75.6295 2.66203 72.8515 2.66203C50.9633 2.6607 29.0752 2.6607 7.18683 2.66181C4.27628 2.66203 2.66175 4.28545 2.66153 7.21022C2.66042 22.2653 2.66109 37.3204 2.66109 52.3754C2.66109 52.6721 2.66109 52.9686 2.66109 53.3005C27.5747 53.3005 52.3972 53.3005 77.3388 53.3005ZM77.3721 56.0559C52.3885 56.0559 27.5469 56.0559 2.71043 56.0559C2.42326 59.5788 4.03913 61.3373 7.50556 61.3376C28.5311 61.3376 49.5566 61.3376 70.5821 61.3376C71.4988 61.3376 72.416 61.3591 73.3318 61.33C75.3393 61.2662 76.8667 59.9795 77.2376 58.0063C77.3534 57.3893 77.3288 56.7458 77.3721 56.0559ZM46.6325 64.0576C42.1683 64.0576 37.7715 64.0576 33.3969 64.0576C33.3969 66.737 33.3969 69.3568 33.3969 71.9604C37.8413 71.9604 42.2183 71.9604 46.6325 71.9604C46.6325 69.3164 46.6325 66.7166 46.6325 64.0576ZM21.3302 77.2808C33.8312 77.2808 46.2311 77.2808 58.6265 77.2808C58.7932 75.0361 58.4543 74.6656 56.2919 74.6656C45.3749 74.6656 34.458 74.6656 23.541 74.6656C23.291 74.6656 23.0405 74.6554 22.7911 74.6692C21.8752 74.7199 21.3757 75.2228 21.3328 76.1455C21.3162 76.5038 21.3302 76.8634 21.3302 77.2808Z" fill="#1F44DD"/>
<path d="M65.3902 42.6271C65.5282 42.6456 65.6102 42.6707 65.69 42.6649C67.7922 42.5131 68.0836 43.149 68.0089 45.0847C67.9564 46.4436 68.0071 47.8063 67.9958 49.1672C67.9873 50.1688 67.5121 50.6533 66.5211 50.6606C64.8823 50.6728 63.2436 50.6684 61.6048 50.6626C60.4548 50.6584 60.0143 50.2059 60.0049 49.0414C60.0025 48.7365 60.0045 48.4315 60.0045 48.0619C46.6891 48.0619 33.4017 48.0619 19.9945 48.0619C19.9945 48.4711 20.0112 48.9041 19.9909 49.3355C19.9534 50.1336 19.4748 50.6448 18.6829 50.6553C16.9055 50.6788 15.1276 50.6777 13.3501 50.6568C12.5095 50.6471 12.0163 50.1399 12.0074 49.2897C11.9894 47.54 11.9892 45.7899 12.0074 44.0403C12.0163 43.1892 12.5095 42.7091 13.3526 42.6738C13.7622 42.6567 14.1732 42.6709 14.6244 42.6709C14.6244 32.885 14.6244 23.1734 14.6244 13.3282C14.2372 13.3282 13.8349 13.3376 13.4333 13.3265C12.5253 13.3013 12.017 12.8346 12.0077 11.9542C11.9888 10.2045 11.9885 8.45443 12.0077 6.70477C12.0172 5.82416 12.5253 5.34629 13.4359 5.33895C15.1303 5.32517 16.8246 5.32628 18.5189 5.33806C19.5109 5.34495 19.9749 5.82771 19.9945 6.83101C20.0014 7.18752 19.9956 7.54448 19.9956 7.95056C33.3408 7.95056 46.6284 7.95056 60.0052 7.95056C60.0052 7.52181 59.9927 7.11351 60.0078 6.70632C60.0396 5.85483 60.5117 5.35118 61.3545 5.34162C63.132 5.32139 64.9099 5.32006 66.6873 5.3434C67.4799 5.35384 67.9811 5.86283 67.9909 6.66298C68.0127 8.44043 68.0133 10.2183 67.9907 11.9958C67.98 12.8273 67.4626 13.296 66.6071 13.326C66.221 13.3396 65.834 13.3282 65.39 13.3282C65.3902 23.1021 65.3902 32.8341 65.3902 42.6271ZM17.3631 24.002C17.7701 24.002 18.0995 24.002 18.4289 24.002C28.1498 24.002 37.8708 24.0016 47.5917 24.0027C48.9184 24.0029 49.33 24.413 49.3303 25.7355C49.3316 31.9291 49.3309 38.1227 49.3309 44.3165C49.3309 44.6386 49.3309 44.9607 49.3309 45.2758C52.9496 45.2758 56.4594 45.2758 59.79 45.2758C60.0236 44.4523 60.0227 43.5162 60.4897 43.0725C60.9571 42.6284 61.892 42.6762 62.6317 42.5062C62.6317 32.8335 62.6317 23.1223 62.6317 13.4171C60.2572 13.062 60.2572 13.062 59.9198 10.7075C46.6382 10.7075 33.3512 10.7075 20.1994 10.7075C19.9847 11.5081 19.9985 12.4421 19.5386 12.8953C19.0786 13.3485 18.1448 13.3209 17.3629 13.5183C17.3631 16.9122 17.3631 20.4016 17.3631 24.002ZM17.3491 42.1804C17.6823 41.6918 17.8843 41.4009 18.0813 41.1062C20.4853 37.5079 22.8853 33.907 25.2937 30.3119C26.2103 28.9436 27.1294 28.9512 28.0516 30.3279C30.1978 33.5321 32.3373 36.7407 34.4824 39.9457C34.6093 40.1353 34.7595 40.3096 34.9278 40.5285C36.2462 38.7684 37.504 37.0767 38.7763 35.396C39.542 34.3844 40.4588 34.3916 41.2356 35.404C41.7762 36.1085 42.3 36.8258 42.8337 37.5359C44.0588 39.1667 45.2855 40.7963 46.614 42.5629C46.614 37.1561 46.614 31.9353 46.614 26.7252C36.8279 26.7252 27.0985 26.7252 17.3493 26.7252C17.3491 31.8364 17.3491 36.886 17.3491 42.1804ZM34.8062 45.3056C32.0506 41.1726 29.3861 37.1761 26.6664 33.0973C24.6114 36.1759 22.7052 39.1713 20.6395 42.0526C19.8683 43.1283 19.9618 44.1552 20.0487 45.3056C24.9534 45.3056 29.801 45.3056 34.8062 45.3056ZM36.4825 42.9347C36.6363 43.1761 36.8021 43.3715 36.8975 43.5966C37.5194 45.066 38.5842 45.5299 40.1712 45.3727C41.8071 45.2109 43.4712 45.3367 45.3148 45.3367C43.4832 42.896 41.7677 40.6103 40.0012 38.2563C38.7816 39.8779 37.6361 41.4011 36.4825 42.9347ZM14.7024 10.6117C15.6023 10.6117 16.4434 10.6117 17.2713 10.6117C17.2713 9.71244 17.2713 8.87029 17.2713 8.03657C16.3852 8.03657 15.5632 8.03657 14.7024 8.03657C14.7024 8.89874 14.7024 9.72067 14.7024 10.6117ZM62.7101 8.03257C62.7101 8.95208 62.7101 9.77401 62.7101 10.6155C63.597 10.6155 64.4384 10.6155 65.2784 10.6155C65.2784 9.72067 65.2784 8.87895 65.2784 8.03257C64.3967 8.03257 63.575 8.03257 62.7101 8.03257ZM17.2927 47.9686C17.2927 47.0519 17.2927 46.23 17.2927 45.3803C16.4085 45.3803 15.5672 45.3803 14.7191 45.3803C14.7191 46.2722 14.7191 47.1137 14.7191 47.9686C15.5981 47.9686 16.4198 47.9686 17.2927 47.9686ZM65.2908 47.9637C65.2908 47.0419 65.2908 46.22 65.2908 45.3852C64.4013 45.3852 63.5601 45.3852 62.727 45.3852C62.727 46.2825 62.727 47.1244 62.727 47.9637C63.6112 47.9637 64.4331 47.9637 65.2908 47.9637Z" fill="#1F44DD"/>
<path d="M39.997 59.9969C39.5525 59.9969 39.1073 60.0136 38.6639 59.9931C37.87 59.9565 37.3481 59.4301 37.3387 58.6853C37.3294 57.9368 37.8448 57.3711 38.6268 57.3462C39.5425 57.3171 40.4607 57.3166 41.3764 57.3464C42.1559 57.3718 42.6729 57.943 42.6611 58.69C42.6495 59.4317 42.1239 59.9576 41.3304 59.9934C40.8865 60.0134 40.4413 59.9969 39.997 59.9969Z" fill="#1F44DD"/>
<path d="M54.1319 17.3175C53.6113 17.3175 53.3582 17.3473 53.1148 17.3118C52.4489 17.2144 51.9804 16.6445 52.0095 15.9668C52.0413 15.2249 52.4493 14.7215 53.1757 14.6917C54.6162 14.6328 56.062 14.6444 57.5036 14.6882C58.2098 14.7095 58.6498 15.2767 58.6598 16.062C58.6761 17.3384 58.675 18.6151 58.6607 19.8916C58.6512 20.76 58.1493 21.3027 57.3794 21.3265C56.5679 21.3514 56.0562 20.8202 56.0042 19.8996C55.9956 19.7462 55.9851 19.5929 55.9618 19.2235C54.8867 20.3177 53.9498 21.2885 52.9926 22.2389C52.5078 22.7201 51.9255 22.8255 51.3202 22.4783C50.7777 22.1669 50.5543 21.6486 50.7068 21.0607C50.791 20.7355 51.0297 20.4208 51.2709 20.1712C52.1513 19.2601 53.0621 18.3789 54.1319 17.3175Z" fill="#1F44DD"/>
<path d="M37.3293 31.9718C37.3391 33.4886 36.1651 34.6677 34.6511 34.6623C33.1803 34.6572 32.0123 33.4934 32.0032 32.0245C31.9939 30.502 33.1597 29.3313 34.6797 29.3364C36.1531 29.3413 37.32 30.502 37.3293 31.9718Z" fill="#1F44DD"/>
</g>
<defs>
<clipPath id="clip0_364_625">
<rect width="80.0002" height="80" fill="white"/>
</clipPath>
</defs>
</svg>
