<svg width="77" height="77" viewBox="0 0 77 77" fill="none" xmlns="http://www.w3.org/2000/svg">
<g clip-path="url(#clip0_364_622)">
<path d="M54.2921 64.9964C54.4724 65.1669 54.6069 65.2935 54.7376 65.4239C55.7311 66.4144 56.7236 67.4059 57.7159 68.3976C59.773 70.453 61.9004 72.5784 64.0022 74.6586C66.0328 76.6682 68.433 77.3744 71.0884 76.7432C73.9588 76.0603 75.8421 74.2323 76.6864 71.3099C77.4644 68.617 76.7922 66.1971 74.6882 64.1181C72.9181 62.369 71.128 60.5813 69.3966 58.8528C67.7465 57.2051 66.0404 55.5014 64.3545 53.834C63.9527 53.4365 63.7598 53.058 64.0401 52.3978C65.0161 50.0992 65.4976 47.788 65.4711 45.5285C65.3728 37.1147 61.6273 30.8453 54.3386 26.8946C53.779 26.5912 53.5721 26.2475 53.5757 25.6266C53.5786 25.1506 53.5824 24.6746 53.5864 24.1984C53.6039 22.0621 53.622 19.8532 53.5439 17.6862C53.4286 14.4921 51.1755 11.8748 48.0647 11.3215C47.0474 11.1405 45.9707 11.1391 44.9294 11.1376C44.4736 11.137 44.0024 11.1363 43.5398 11.1206C43.2475 11.1105 42.955 11.1132 42.6469 11.116C42.4985 11.1172 42.3465 11.1185 42.1893 11.1185H41.9789L41.9802 10.2127C41.9816 9.75198 41.9827 9.32867 41.9776 8.90558C41.9465 6.26117 40.2172 4.53939 37.5721 4.51881C36.4839 4.5102 35.3958 4.51251 34.3122 4.51461C33.8263 4.51566 33.3412 4.5165 32.8572 4.5165H32.732L32.6722 4.40668C32.6533 4.37183 32.6358 4.34159 32.6202 4.3143C32.5842 4.25151 32.5558 4.20049 32.5337 4.14737C31.4257 1.47483 29.5456 0.0806017 26.9457 0.00333149C24.3195 -0.0743587 22.3688 1.20711 21.1291 3.80994C20.9925 4.09655 20.5461 4.3206 20.2384 4.32941C19.7294 4.34411 19.2215 4.346 18.8364 4.346L17.6564 4.3439C17.0859 4.3439 16.4127 4.34831 15.747 4.38002C13.4742 4.489 11.6818 6.37246 11.6664 8.66789C11.6633 9.14369 11.6641 9.61949 11.6649 10.1362L11.6658 11.1298H11.4553C10.9566 11.1298 10.4681 11.1267 9.9864 11.1235C9.519 11.1204 9.05811 11.1174 8.60102 11.1174C7.96946 11.1174 7.44776 11.1231 6.95951 11.1355C2.93046 11.238 0.00521891 14.2311 0.00353532 18.253C-0.00256771 34.0854 0.00016813 49.9178 0.00311442 65.7504L0.00395622 70.2065C0.00395622 70.4814 0.010901 70.8037 0.0616193 71.1121C0.62415 74.5265 3.46227 76.9399 6.96351 76.9811C8.05322 76.9941 9.22458 77 10.6495 77C11.573 77 12.4964 76.9975 13.4201 76.9951C14.3442 76.9926 15.268 76.9903 16.1917 76.9903L33.0975 76.9926C37.5344 76.9926 41.972 76.9912 46.4086 76.9867C50.0395 76.983 52.9332 74.6023 53.4454 71.1967C53.6273 69.9888 53.6092 68.7214 53.5919 67.4955C53.5841 66.9406 53.5759 66.3667 53.5862 65.8031C53.5896 65.6326 53.5887 65.4621 53.5879 65.2404L53.5869 64.3268L53.9425 64.6655C54.0783 64.7946 54.1923 64.9021 54.2921 64.9964ZM65.6191 59.1982C67.9683 61.5371 70.3975 63.9554 72.7737 66.3472C73.988 67.569 74.4603 69.2345 74.0368 70.8024C73.6136 72.3688 72.368 73.5711 70.7048 74.0181C70.2477 74.1412 69.7969 74.2035 69.3651 74.2035H69.3649C68.344 74.2033 67.4327 73.8502 66.73 73.1818C64.0998 70.6817 61.4566 68.0921 58.9005 65.5877C57.9086 64.6157 56.9145 63.6419 55.9151 62.667L55.7254 62.482L55.9491 62.3396C58.5187 60.7067 60.5496 58.6857 62.1582 56.1609L62.2912 55.9522L62.476 56.1171C62.5347 56.1693 62.5913 56.2183 62.6458 56.2655C62.7599 56.3642 62.8675 56.4574 62.9699 56.5593C63.8526 57.4395 64.7358 58.3191 65.6191 59.1982ZM14.5077 9.03786C14.5111 7.81644 14.9631 7.35807 16.1755 7.34652C16.7879 7.34085 17.4005 7.33917 18.0129 7.33917L20.2658 7.34148C20.8208 7.34148 21.3757 7.34022 21.9307 7.33561C23.2226 7.32511 23.5875 6.9818 23.7052 5.66611C23.8359 4.2049 25.0158 3.08007 26.5109 2.99125C28.1709 2.89152 29.652 3.90821 29.9803 5.32931C30.0231 5.51472 30.0492 5.70222 30.0744 5.88385L30.0971 6.04427C30.2249 6.91419 30.605 7.26883 31.4522 7.30957C32.0861 7.34022 32.7185 7.344 33.1985 7.344C33.4511 7.344 33.7034 7.34274 33.9559 7.34169C34.2091 7.34043 34.4625 7.33917 34.7155 7.33917L35.2083 7.34001C35.4333 7.34001 35.6585 7.33875 35.8837 7.33749C36.1097 7.33624 36.3355 7.33497 36.5615 7.33497C37.0384 7.33497 37.4065 7.34064 37.755 7.35303C38.7811 7.38999 39.2816 7.91366 39.2847 8.95387C39.2912 11.2504 39.2891 13.4834 39.2862 15.9554C39.2847 17.213 38.7426 17.7268 37.4149 17.7291C35.8691 17.7318 34.3238 17.7327 32.7781 17.7327L26.8503 17.7314L20.8997 17.7327C19.4143 17.7327 17.9288 17.7322 16.4436 17.7308C14.9781 17.7293 14.5073 17.2611 14.5062 15.8032L14.5056 15.1021C14.5039 13.0809 14.5022 11.0595 14.5077 9.03786ZM50.6279 71.0649C50.4712 72.7335 48.5346 74.0177 46.8946 74.1263C46.7849 74.1334 46.6751 74.1345 46.5652 74.1345L26.8 74.1357C20.2117 74.1357 13.6232 74.1347 7.03485 74.1311C5.0581 74.1301 3.33053 72.8475 2.83387 71.0122C2.74737 70.693 2.70718 70.3306 2.70697 69.8714C2.70128 52.2798 2.70044 34.8776 2.70465 18.1486C2.70507 15.7973 4.32869 14.0839 6.65289 13.9819C7.1727 13.9592 7.72913 13.9485 8.40425 13.9485C8.87208 13.9485 9.34327 13.9535 9.81973 13.9586C10.3059 13.9638 10.7975 13.9691 11.2969 13.9691H11.5073V14.1791C11.5073 14.4451 11.5063 14.7034 11.5052 14.956C11.5031 15.4958 11.5008 16.0058 11.5094 16.5171C11.5431 18.5389 13.0872 20.2412 15.1012 20.4768C15.4713 20.5201 15.7977 20.541 16.0991 20.5413C18.6628 20.5425 21.2254 20.5427 23.7893 20.5427H25.6815C29.5624 20.5427 33.4437 20.5429 37.3246 20.5473C39.1603 20.5473 40.4704 19.8901 41.2278 18.594C41.6182 17.9254 41.7741 17.0836 41.925 16.2696L41.9614 16.073C42.0349 15.682 42.0166 15.2711 41.9972 14.8363C41.9884 14.6366 41.9795 14.4363 41.9795 14.2364V14.0264H42.19C42.7411 14.0264 43.2913 14.0149 43.8235 14.0037C44.3395 13.9928 44.8732 13.9817 45.392 13.9817C46.1715 13.9817 46.8108 14.0071 47.4043 14.0617C49.1626 14.2234 50.6109 15.7969 50.7016 17.644C50.7851 19.3534 50.7662 21.088 50.7477 22.7655C50.7397 23.4893 50.7317 24.2114 50.7317 24.9303V25.1689L50.4945 25.1384C50.0867 25.0863 49.6811 25.0324 49.2771 24.9786C48.4235 24.8648 47.5409 24.7474 46.6755 24.6548C45.9452 24.5767 45.2124 24.5371 44.4965 24.5371C40.2275 24.5371 36.1366 25.9533 32.3378 28.7466C31.7963 29.1447 31.2494 29.3223 30.5643 29.3223C27.3895 29.3135 24.226 29.3112 21.0626 29.3112L12.879 29.3135L12.6414 29.3131C12.4567 29.3131 12.2422 29.315 12.0351 29.3373C11.1039 29.4378 10.6697 29.9311 10.708 30.8447C10.7432 31.685 11.244 32.1299 12.1563 32.1314C14.9128 32.1358 17.6684 32.1368 20.4249 32.1368L26.3406 32.1364H28.5741L28.4028 32.4474C28.2042 32.8081 28.0082 33.1663 27.8136 33.5224C27.1809 34.6794 26.5833 35.7721 25.938 36.8661C25.7295 37.2197 25.0241 37.2327 24.9443 37.2329C22.2171 37.244 19.5208 37.2449 16.9927 37.2449H12.649C12.4586 37.2449 12.2376 37.2467 12.0267 37.2694C11.2981 37.3477 10.8753 37.837 10.8667 38.6122C10.8579 39.4011 11.2603 39.9096 11.9703 40.0077C12.2557 40.0472 12.5591 40.0472 12.8525 40.0472H12.886C14.9496 40.0486 17.0129 40.049 19.0765 40.049L24.9493 40.0488L24.4577 45.1411L17.6407 45.1394C15.8876 45.1394 14.1341 45.1409 12.3811 45.1459C11.8449 45.1476 11.4454 45.2822 11.1944 45.5468C10.9541 45.8 10.845 46.1778 10.8703 46.6697C10.9054 47.354 11.2581 47.7673 11.9183 47.8981C12.1915 47.9522 12.5019 47.9779 12.8954 47.9785C14.8686 47.9818 16.8414 47.9825 18.8145 47.9825L24.4373 47.9821L25.6977 53.0284L17.8947 53.0271C16.0652 53.0271 14.2358 53.0279 12.4064 53.0315C11.3998 53.0336 10.8819 53.4934 10.8669 54.3989C10.8591 54.8555 10.9772 55.2112 11.2175 55.4561C11.4856 55.7297 11.9074 55.8697 12.4705 55.8724C14.3726 55.8823 16.2744 55.8806 18.1769 55.8785C19.4579 55.8777 20.7393 55.8766 22.0201 55.879C22.5637 55.8798 23.1073 55.8806 23.6509 55.8806C24.7947 55.8806 25.6771 55.8766 26.5121 55.8676C27.0635 55.8676 27.3419 56.1003 27.6193 56.4761C28.3247 57.4323 29.0531 58.3474 29.8242 59.3164C30.1119 59.6778 30.4019 60.0421 30.6929 60.4119L30.9604 60.7516L20.999 60.751C18.1918 60.751 15.3842 60.7516 12.5768 60.7539C11.9467 60.7543 11.4869 60.8956 11.2104 61.1734C10.9789 61.4059 10.8629 61.7511 10.8657 62.1992C10.8707 62.9998 11.3042 63.4945 12.0863 63.5915C12.2412 63.6108 12.3996 63.6133 12.5206 63.6133C12.5876 63.6133 12.6547 63.6125 12.7216 63.6114C12.7902 63.6106 12.8588 63.6098 12.9274 63.6098L17.5045 63.61L19.3451 63.6098C24.3816 63.6098 29.7406 63.6108 35.0208 63.6209C35.4792 63.6217 35.9384 63.715 36.3138 63.8831C39.1736 65.1636 42.082 65.8126 44.9576 65.8126C46.5031 65.8126 48.076 65.6253 49.6329 65.2568C49.82 65.2125 50.0065 65.1804 50.187 65.1493C50.2462 65.1392 50.3064 65.1358 50.3706 65.1329L50.6723 65.1127V65.3381C50.6723 65.9136 50.685 66.499 50.6968 67.0655C50.7241 68.3801 50.7529 69.7391 50.6279 71.0649ZM44.7865 62.5954C44.7859 62.5954 44.7861 62.5954 44.7857 62.5954C44.5512 62.5954 44.3149 62.591 44.0785 62.5819C39.318 62.3997 34.9499 60.3894 31.7788 56.9211C28.5724 53.4143 26.9499 48.8073 27.2098 43.9491C27.7243 34.3327 35.4028 27.0809 45.0704 27.0809C45.3358 27.0809 45.6056 27.0863 45.8724 27.0975C54.2868 27.4418 63.0308 34.9612 62.6357 45.6062C62.4651 50.204 60.5226 54.49 57.166 57.674C53.8198 60.8473 49.4231 62.5954 44.7865 62.5954Z" fill="#1F44DD"/>
<path d="M55.0182 37.5605C54.8997 37.5605 54.7761 37.5792 54.6516 37.6164C54.3302 37.7117 53.9729 37.9528 53.5896 38.3326C49.5644 42.3227 45.634 46.2528 42.3203 49.5706C42.1995 49.6916 42.1033 49.8469 42.001 50.0118C41.9501 50.0941 41.8992 50.1762 41.8449 50.2549L41.7906 50.3337L41.218 50.3987L41.1479 50.286C41.097 50.2041 41.05 50.118 41.0031 50.0321C40.9109 49.8627 40.824 49.7029 40.7083 49.5857C39.3283 48.1898 37.6866 46.5365 35.9708 44.8567C35.6301 44.5231 35.2267 44.3393 34.8348 44.3393C34.3699 44.3393 33.9591 44.5856 33.6782 45.0327C33.2903 45.65 33.4099 46.2392 34.0541 46.8867C35.8206 48.6623 37.6254 50.4594 39.3706 52.1974L40.1306 52.9541C40.6984 53.5196 41.123 53.7718 41.5077 53.7718C41.8939 53.7718 42.3209 53.5175 42.8927 52.9474C47.0956 48.7561 51.2972 44.5632 55.498 40.3698L55.5691 40.299C55.732 40.1371 55.8863 39.9845 56.0172 39.8148C56.4263 39.2857 56.4553 38.7694 56.1064 38.2367C55.9048 37.9282 55.5521 37.5605 55.0182 37.5605Z" fill="#1F44DD"/>
</g>
<defs>
<clipPath id="clip0_364_622">
<rect width="77" height="77" fill="white"/>
</clipPath>
</defs>
</svg>
